<svg width="280" height="240" viewBox="0 0 280 240" xmlns="http://www.w3.org/2000/svg">
  <g fill="none" stroke="#6366f1" stroke-width="18" stroke-linecap="round" stroke-linejoin="round">
    <!-- Main brain outline -->
    <path d="M 140 45 
             C 75 45, 35 95, 45 145 
             C 55 185, 95 210, 140 210 
             C 185 210, 225 185, 235 145 
             C 245 95, 205 45, 140 45 Z" />
    
    <!-- Left hemisphere folds -->
    <path d="M 80 80 
             Q 60 110, 75 140 
             M 90 75 
             Q 70 105, 85 135 
             M 100 85 
             Q 85 120, 100 150" />
    
    <!-- Right hemisphere folds -->
    <path d="M 200 80 
             Q 220 110, 205 140 
             M 190 75 
             Q 210 105, 195 135 
             M 180 85 
             Q 195 120, 180 150" />
    
    <!-- Center folds / connection area -->
    <path d="M 125 110 
             Q 140 130, 155 110 
             M 120 135 
             Q 140 155, 160 135" />
  </g>
  
  <!-- Small highlight / shine -->
  <circle cx="105" cy="85" r="12" fill="#a5b4fc" opacity="0.35"/>
</svg>