<svg xmlns="http://www.w3.org/2000/svg" viewBox="30 18 80 80">
  <path fill="#6963EF" d="
M99.145477,36.895393 
    C104.923241,44.815788 107.201073,53.375565 105.679352,62.656700 
    C104.320358,70.945320 100.548729,77.508644 91.226601,78.453590 
    C90.670021,81.125198 90.184540,83.455574 89.566505,86.422173 
    C87.960304,85.457565 86.743736,85.117355 86.166084,84.316376 
    C82.552574,79.305740 77.689117,78.166245 71.778214,78.617287 
    C63.218876,79.270432 55.439316,77.878975 51.465134,68.611610 
    C50.949070,67.408195 48.477272,66.763596 46.793530,66.386971 
    C37.077396,64.213615 33.484962,58.647789 35.577595,48.937477 
    C38.364796,36.004219 46.212147,27.623106 58.763973,24.022346 
    C72.994286,19.940075 85.779518,22.705532 96.360962,33.550678 
    C97.288521,34.501350 98.077644,35.587093 99.145477,36.895393 
z"/>
</svg>